<mxfile host="app.diagrams.net" modified="2021-02-22T09:06:06.520Z" agent="5.0 (Macintosh; Intel Mac OS X 11_2_0) AppleWebKit/537.36 (KHTML, like Gecko) Chrome/88.0.4324.182 Safari/537.36" etag="6dQLX6ubBJvR72l5-_N5" version="14.4.2" type="github">
  <diagram id="eKRGfKMBqLc3NzJdIPlq" name="Page-1">
    <mxGraphModel dx="2317" dy="1035" grid="1" gridSize="10" guides="1" tooltips="1" connect="1" arrows="1" fold="1" page="1" pageScale="1" pageWidth="827" pageHeight="1169" math="0" shadow="0">
      <root>
        <mxCell id="0" />
        <mxCell id="1" parent="0" />
        <mxCell id="XwypZ3vU5W_jLRQiYMMl-3" value="" style="edgeStyle=orthogonalEdgeStyle;rounded=0;orthogonalLoop=1;jettySize=auto;html=1;" parent="1" source="XwypZ3vU5W_jLRQiYMMl-1" target="XwypZ3vU5W_jLRQiYMMl-2" edge="1">
          <mxGeometry relative="1" as="geometry">
            <Array as="points">
              <mxPoint x="240" y="320" />
            </Array>
          </mxGeometry>
        </mxCell>
        <mxCell id="XwypZ3vU5W_jLRQiYMMl-6" style="edgeStyle=orthogonalEdgeStyle;rounded=0;orthogonalLoop=1;jettySize=auto;html=1;entryX=0;entryY=0.5;entryDx=0;entryDy=0;" parent="1" source="XwypZ3vU5W_jLRQiYMMl-1" target="XwypZ3vU5W_jLRQiYMMl-4" edge="1">
          <mxGeometry relative="1" as="geometry" />
        </mxCell>
        <mxCell id="XwypZ3vU5W_jLRQiYMMl-13" style="edgeStyle=orthogonalEdgeStyle;rounded=0;orthogonalLoop=1;jettySize=auto;html=1;entryX=0;entryY=0.5;entryDx=0;entryDy=0;" parent="1" source="XwypZ3vU5W_jLRQiYMMl-1" target="XwypZ3vU5W_jLRQiYMMl-12" edge="1">
          <mxGeometry relative="1" as="geometry" />
        </mxCell>
        <mxCell id="XwypZ3vU5W_jLRQiYMMl-47" style="edgeStyle=orthogonalEdgeStyle;rounded=0;orthogonalLoop=1;jettySize=auto;html=1;exitX=0.5;exitY=0;exitDx=0;exitDy=0;entryX=0.5;entryY=0;entryDx=0;entryDy=0;" parent="1" source="XwypZ3vU5W_jLRQiYMMl-1" target="XwypZ3vU5W_jLRQiYMMl-37" edge="1">
          <mxGeometry relative="1" as="geometry">
            <Array as="points">
              <mxPoint x="240" y="150" />
              <mxPoint x="-260" y="150" />
            </Array>
          </mxGeometry>
        </mxCell>
        <mxCell id="XwypZ3vU5W_jLRQiYMMl-49" style="edgeStyle=orthogonalEdgeStyle;rounded=0;orthogonalLoop=1;jettySize=auto;html=1;exitX=0;exitY=0.5;exitDx=0;exitDy=0;" parent="1" source="XwypZ3vU5W_jLRQiYMMl-1" edge="1">
          <mxGeometry relative="1" as="geometry">
            <mxPoint x="50" y="220.27586206896558" as="targetPoint" />
          </mxGeometry>
        </mxCell>
        <mxCell id="XwypZ3vU5W_jLRQiYMMl-1" value="Merchant" style="rounded=0;whiteSpace=wrap;html=1;" parent="1" vertex="1">
          <mxGeometry x="180" y="190" width="120" height="60" as="geometry" />
        </mxCell>
        <mxCell id="XwypZ3vU5W_jLRQiYMMl-2" value="create" style="rounded=0;whiteSpace=wrap;html=1;" parent="1" vertex="1">
          <mxGeometry x="290" y="290" width="120" height="60" as="geometry" />
        </mxCell>
        <mxCell id="XwypZ3vU5W_jLRQiYMMl-4" value="get" style="rounded=0;whiteSpace=wrap;html=1;" parent="1" vertex="1">
          <mxGeometry x="290" y="360" width="120" height="60" as="geometry" />
        </mxCell>
        <mxCell id="XwypZ3vU5W_jLRQiYMMl-7" value="" style="edgeStyle=orthogonalEdgeStyle;rounded=0;orthogonalLoop=1;jettySize=auto;html=1;" parent="1" source="XwypZ3vU5W_jLRQiYMMl-9" target="XwypZ3vU5W_jLRQiYMMl-10" edge="1">
          <mxGeometry relative="1" as="geometry">
            <Array as="points">
              <mxPoint x="465" y="322" />
            </Array>
          </mxGeometry>
        </mxCell>
        <mxCell id="XwypZ3vU5W_jLRQiYMMl-48" style="edgeStyle=orthogonalEdgeStyle;rounded=0;orthogonalLoop=1;jettySize=auto;html=1;exitX=0.5;exitY=0;exitDx=0;exitDy=0;entryX=0.5;entryY=0;entryDx=0;entryDy=0;" parent="1" source="XwypZ3vU5W_jLRQiYMMl-9" target="XwypZ3vU5W_jLRQiYMMl-37" edge="1">
          <mxGeometry relative="1" as="geometry" />
        </mxCell>
        <mxCell id="XwypZ3vU5W_jLRQiYMMl-50" style="edgeStyle=orthogonalEdgeStyle;rounded=0;orthogonalLoop=1;jettySize=auto;html=1;exitX=0;exitY=0.5;exitDx=0;exitDy=0;entryX=1;entryY=0.5;entryDx=0;entryDy=0;" parent="1" source="XwypZ3vU5W_jLRQiYMMl-9" target="XwypZ3vU5W_jLRQiYMMl-24" edge="1">
          <mxGeometry relative="1" as="geometry">
            <Array as="points">
              <mxPoint x="340" y="222" />
              <mxPoint x="340" y="260" />
              <mxPoint x="120" y="260" />
              <mxPoint x="120" y="220" />
            </Array>
          </mxGeometry>
        </mxCell>
        <mxCell id="XwypZ3vU5W_jLRQiYMMl-9" value="Store" style="rounded=0;whiteSpace=wrap;html=1;" parent="1" vertex="1">
          <mxGeometry x="405" y="192" width="120" height="60" as="geometry" />
        </mxCell>
        <mxCell id="XwypZ3vU5W_jLRQiYMMl-10" value="create" style="rounded=0;whiteSpace=wrap;html=1;" parent="1" vertex="1">
          <mxGeometry x="500" y="290" width="120" height="60" as="geometry" />
        </mxCell>
        <mxCell id="XwypZ3vU5W_jLRQiYMMl-12" value="update" style="rounded=0;whiteSpace=wrap;html=1;" parent="1" vertex="1">
          <mxGeometry x="290" y="430" width="120" height="60" as="geometry" />
        </mxCell>
        <mxCell id="XwypZ3vU5W_jLRQiYMMl-21" value="" style="edgeStyle=orthogonalEdgeStyle;rounded=0;orthogonalLoop=1;jettySize=auto;html=1;" parent="1" source="XwypZ3vU5W_jLRQiYMMl-24" target="XwypZ3vU5W_jLRQiYMMl-25" edge="1">
          <mxGeometry relative="1" as="geometry">
            <Array as="points">
              <mxPoint x="-10" y="320" />
            </Array>
          </mxGeometry>
        </mxCell>
        <mxCell id="XwypZ3vU5W_jLRQiYMMl-22" style="edgeStyle=orthogonalEdgeStyle;rounded=0;orthogonalLoop=1;jettySize=auto;html=1;entryX=0;entryY=0.5;entryDx=0;entryDy=0;" parent="1" source="XwypZ3vU5W_jLRQiYMMl-24" target="XwypZ3vU5W_jLRQiYMMl-26" edge="1">
          <mxGeometry relative="1" as="geometry" />
        </mxCell>
        <mxCell id="XwypZ3vU5W_jLRQiYMMl-23" style="edgeStyle=orthogonalEdgeStyle;rounded=0;orthogonalLoop=1;jettySize=auto;html=1;entryX=0;entryY=0.5;entryDx=0;entryDy=0;" parent="1" source="XwypZ3vU5W_jLRQiYMMl-24" target="XwypZ3vU5W_jLRQiYMMl-27" edge="1">
          <mxGeometry relative="1" as="geometry" />
        </mxCell>
        <mxCell id="XwypZ3vU5W_jLRQiYMMl-29" style="edgeStyle=orthogonalEdgeStyle;rounded=0;orthogonalLoop=1;jettySize=auto;html=1;entryX=0;entryY=0.5;entryDx=0;entryDy=0;" parent="1" source="XwypZ3vU5W_jLRQiYMMl-24" target="XwypZ3vU5W_jLRQiYMMl-28" edge="1">
          <mxGeometry relative="1" as="geometry" />
        </mxCell>
        <mxCell id="XwypZ3vU5W_jLRQiYMMl-24" value="Order" style="rounded=0;whiteSpace=wrap;html=1;" parent="1" vertex="1">
          <mxGeometry x="-70" y="190" width="120" height="60" as="geometry" />
        </mxCell>
        <mxCell id="XwypZ3vU5W_jLRQiYMMl-25" value="create" style="rounded=0;whiteSpace=wrap;html=1;" parent="1" vertex="1">
          <mxGeometry x="40" y="290" width="120" height="60" as="geometry" />
        </mxCell>
        <mxCell id="XwypZ3vU5W_jLRQiYMMl-26" value="update" style="rounded=0;whiteSpace=wrap;html=1;" parent="1" vertex="1">
          <mxGeometry x="40" y="360" width="120" height="60" as="geometry" />
        </mxCell>
        <mxCell id="XwypZ3vU5W_jLRQiYMMl-27" value="cancle" style="rounded=0;whiteSpace=wrap;html=1;" parent="1" vertex="1">
          <mxGeometry x="40" y="430" width="120" height="60" as="geometry" />
        </mxCell>
        <mxCell id="XwypZ3vU5W_jLRQiYMMl-28" value="Batch create" style="rounded=0;whiteSpace=wrap;html=1;" parent="1" vertex="1">
          <mxGeometry x="40" y="500" width="120" height="60" as="geometry" />
        </mxCell>
        <mxCell id="XwypZ3vU5W_jLRQiYMMl-33" value="" style="edgeStyle=orthogonalEdgeStyle;rounded=0;orthogonalLoop=1;jettySize=auto;html=1;" parent="1" source="XwypZ3vU5W_jLRQiYMMl-37" target="XwypZ3vU5W_jLRQiYMMl-38" edge="1">
          <mxGeometry relative="1" as="geometry">
            <Array as="points">
              <mxPoint x="-260" y="280" />
            </Array>
          </mxGeometry>
        </mxCell>
        <mxCell id="XwypZ3vU5W_jLRQiYMMl-37" value="Order Cross border" style="rounded=0;whiteSpace=wrap;html=1;" parent="1" vertex="1">
          <mxGeometry x="-320" y="170" width="120" height="60" as="geometry" />
        </mxCell>
        <mxCell id="XwypZ3vU5W_jLRQiYMMl-38" value="create" style="rounded=0;whiteSpace=wrap;html=1;" parent="1" vertex="1">
          <mxGeometry x="-230" y="250" width="120" height="60" as="geometry" />
        </mxCell>
        <mxCell id="XwypZ3vU5W_jLRQiYMMl-45" style="edgeStyle=orthogonalEdgeStyle;rounded=0;orthogonalLoop=1;jettySize=auto;html=1;exitX=1;exitY=0.5;exitDx=0;exitDy=0;entryX=0;entryY=0.5;entryDx=0;entryDy=0;" parent="1" source="XwypZ3vU5W_jLRQiYMMl-43" target="XwypZ3vU5W_jLRQiYMMl-37" edge="1">
          <mxGeometry relative="1" as="geometry" />
        </mxCell>
        <mxCell id="XwypZ3vU5W_jLRQiYMMl-43" value="get all country" style="rounded=0;whiteSpace=wrap;html=1;" parent="1" vertex="1">
          <mxGeometry x="-490" y="170" width="120" height="60" as="geometry" />
        </mxCell>
        <mxCell id="XwypZ3vU5W_jLRQiYMMl-46" style="edgeStyle=orthogonalEdgeStyle;rounded=0;orthogonalLoop=1;jettySize=auto;html=1;exitX=1;exitY=0.5;exitDx=0;exitDy=0;" parent="1" source="XwypZ3vU5W_jLRQiYMMl-44" edge="1">
          <mxGeometry relative="1" as="geometry">
            <mxPoint x="-320" y="200" as="targetPoint" />
            <Array as="points">
              <mxPoint x="-340" y="270" />
              <mxPoint x="-340" y="200" />
            </Array>
          </mxGeometry>
        </mxCell>
        <mxCell id="XwypZ3vU5W_jLRQiYMMl-44" value="get rate by weight international" style="rounded=0;whiteSpace=wrap;html=1;" parent="1" vertex="1">
          <mxGeometry x="-490" y="240" width="120" height="60" as="geometry" />
        </mxCell>
        <mxCell id="-m6qlQXstEaMMELnGQX9-31" value="&lt;ul&gt;&lt;li&gt;&#39;D&#39; = บริการ Drop off&lt;/li&gt;&lt;li&gt;&#39;L&#39; = Lex&lt;/li&gt;&lt;li&gt;&#39;W&#39; = Warehouse&lt;/li&gt;&lt;li&gt;&#39;C&#39; = Crossborder&lt;/li&gt;&lt;li&gt;&#39;I&#39; = R ต่างประเทศ&lt;/li&gt;&lt;/ul&gt;" style="rounded=0;whiteSpace=wrap;html=1;align=left;" parent="1" vertex="1">
          <mxGeometry x="40" y="580" width="170" height="120" as="geometry" />
        </mxCell>
        <mxCell id="-m6qlQXstEaMMELnGQX9-33" value="required field&lt;br&gt;&lt;ul&gt;&lt;li&gt;สาขาที่ dropoff&lt;/li&gt;&lt;li&gt;email&lt;/li&gt;&lt;/ul&gt;" style="rounded=0;whiteSpace=wrap;html=1;align=left;" parent="1" vertex="1">
          <mxGeometry x="290" y="500" width="210" height="110" as="geometry" />
        </mxCell>
        <mxCell id="-m6qlQXstEaMMELnGQX9-34" value="ออกแบบ&lt;br&gt;ระบบกล่อง&lt;br&gt;ระบบส่วนลดขนส่ง" style="rounded=0;whiteSpace=wrap;html=1;" parent="1" vertex="1">
          <mxGeometry x="390" y="880" width="120" height="60" as="geometry" />
        </mxCell>
        <mxCell id="-m6qlQXstEaMMELnGQX9-35" value="Thaipost" style="rounded=0;whiteSpace=wrap;html=1;" parent="1" vertex="1">
          <mxGeometry x="30" y="60" width="120" height="60" as="geometry" />
        </mxCell>
        <mxCell id="-m6qlQXstEaMMELnGQX9-50" value="" style="edgeStyle=orthogonalEdgeStyle;rounded=0;orthogonalLoop=1;jettySize=auto;html=1;" parent="1" source="-m6qlQXstEaMMELnGQX9-54" target="-m6qlQXstEaMMELnGQX9-55" edge="1">
          <mxGeometry relative="1" as="geometry">
            <Array as="points">
              <mxPoint x="1490" y="370" />
            </Array>
          </mxGeometry>
        </mxCell>
        <mxCell id="-m6qlQXstEaMMELnGQX9-51" style="edgeStyle=orthogonalEdgeStyle;rounded=0;orthogonalLoop=1;jettySize=auto;html=1;entryX=0;entryY=0.5;entryDx=0;entryDy=0;" parent="1" source="-m6qlQXstEaMMELnGQX9-54" target="-m6qlQXstEaMMELnGQX9-56" edge="1">
          <mxGeometry relative="1" as="geometry" />
        </mxCell>
        <mxCell id="-m6qlQXstEaMMELnGQX9-52" style="edgeStyle=orthogonalEdgeStyle;rounded=0;orthogonalLoop=1;jettySize=auto;html=1;entryX=0;entryY=0.5;entryDx=0;entryDy=0;" parent="1" source="-m6qlQXstEaMMELnGQX9-54" target="-m6qlQXstEaMMELnGQX9-57" edge="1">
          <mxGeometry relative="1" as="geometry" />
        </mxCell>
        <mxCell id="-m6qlQXstEaMMELnGQX9-54" value="Order" style="rounded=0;whiteSpace=wrap;html=1;" parent="1" vertex="1">
          <mxGeometry x="1430" y="240" width="120" height="60" as="geometry" />
        </mxCell>
        <mxCell id="-m6qlQXstEaMMELnGQX9-55" value="create" style="rounded=0;whiteSpace=wrap;html=1;" parent="1" vertex="1">
          <mxGeometry x="1540" y="340" width="120" height="60" as="geometry" />
        </mxCell>
        <mxCell id="-m6qlQXstEaMMELnGQX9-56" value="cancle" style="rounded=0;whiteSpace=wrap;html=1;" parent="1" vertex="1">
          <mxGeometry x="1540" y="410" width="120" height="60" as="geometry" />
        </mxCell>
        <mxCell id="-m6qlQXstEaMMELnGQX9-57" value="Freight inquiry" style="rounded=0;whiteSpace=wrap;html=1;" parent="1" vertex="1">
          <mxGeometry x="1540" y="480" width="120" height="60" as="geometry" />
        </mxCell>
        <mxCell id="-m6qlQXstEaMMELnGQX9-66" value="&lt;ul&gt;&lt;li&gt;1 pickup&lt;/li&gt;&lt;li&gt;6 drop off&lt;/li&gt;&lt;/ul&gt;" style="rounded=0;whiteSpace=wrap;html=1;align=left;" parent="1" vertex="1">
          <mxGeometry x="1540" y="550" width="130" height="50" as="geometry" />
        </mxCell>
        <mxCell id="-m6qlQXstEaMMELnGQX9-68" value="ออกแบบ&lt;br&gt;ระบบกล่อง&lt;br&gt;ระบบส่วนลดขนส่ง" style="rounded=0;whiteSpace=wrap;html=1;" parent="1" vertex="1">
          <mxGeometry x="840" y="170" width="120" height="60" as="geometry" />
        </mxCell>
        <mxCell id="-m6qlQXstEaMMELnGQX9-69" value="J&amp;amp;T" style="rounded=0;whiteSpace=wrap;html=1;" parent="1" vertex="1">
          <mxGeometry x="1530" y="110" width="120" height="60" as="geometry" />
        </mxCell>
        <mxCell id="-m6qlQXstEaMMELnGQX9-73" style="edgeStyle=orthogonalEdgeStyle;rounded=0;orthogonalLoop=1;jettySize=auto;html=1;exitX=0.5;exitY=1;exitDx=0;exitDy=0;entryX=0;entryY=0.5;entryDx=0;entryDy=0;" parent="1" source="-m6qlQXstEaMMELnGQX9-70" target="-m6qlQXstEaMMELnGQX9-71" edge="1">
          <mxGeometry relative="1" as="geometry" />
        </mxCell>
        <mxCell id="-m6qlQXstEaMMELnGQX9-74" style="edgeStyle=orthogonalEdgeStyle;rounded=0;orthogonalLoop=1;jettySize=auto;html=1;exitX=0.5;exitY=1;exitDx=0;exitDy=0;entryX=0;entryY=0.5;entryDx=0;entryDy=0;" parent="1" source="-m6qlQXstEaMMELnGQX9-70" target="-m6qlQXstEaMMELnGQX9-72" edge="1">
          <mxGeometry relative="1" as="geometry" />
        </mxCell>
        <mxCell id="-m6qlQXstEaMMELnGQX9-70" value="PDF" style="rounded=0;whiteSpace=wrap;html=1;" parent="1" vertex="1">
          <mxGeometry x="-490" y="330" width="120" height="60" as="geometry" />
        </mxCell>
        <mxCell id="-m6qlQXstEaMMELnGQX9-71" value="Deposit" style="rounded=0;whiteSpace=wrap;html=1;" parent="1" vertex="1">
          <mxGeometry x="-400" y="410" width="120" height="60" as="geometry" />
        </mxCell>
        <mxCell id="-m6qlQXstEaMMELnGQX9-72" value="Pre-print" style="rounded=0;whiteSpace=wrap;html=1;" parent="1" vertex="1">
          <mxGeometry x="-400" y="480" width="120" height="60" as="geometry" />
        </mxCell>
        <mxCell id="-m6qlQXstEaMMELnGQX9-75" value="Report" style="rounded=0;whiteSpace=wrap;html=1;" parent="1" vertex="1">
          <mxGeometry x="-450" y="640" width="120" height="60" as="geometry" />
        </mxCell>
        <mxCell id="-m6qlQXstEaMMELnGQX9-76" value="get all&lt;br&gt;order delivered" style="rounded=0;whiteSpace=wrap;html=1;" parent="1" vertex="1">
          <mxGeometry x="-580" y="720" width="120" height="60" as="geometry" />
        </mxCell>
        <mxCell id="-m6qlQXstEaMMELnGQX9-77" value="get history status" style="rounded=0;whiteSpace=wrap;html=1;" parent="1" vertex="1">
          <mxGeometry x="-580" y="790" width="120" height="60" as="geometry" />
        </mxCell>
        <mxCell id="-m6qlQXstEaMMELnGQX9-78" value="get order&lt;br&gt;by duration time" style="rounded=0;whiteSpace=wrap;html=1;" parent="1" vertex="1">
          <mxGeometry x="-580" y="860" width="120" height="60" as="geometry" />
        </mxCell>
        <mxCell id="-m6qlQXstEaMMELnGQX9-79" value="get rate proce&lt;br&gt;zone by weight" style="rounded=0;whiteSpace=wrap;html=1;" parent="1" vertex="1">
          <mxGeometry x="-580" y="930" width="120" height="60" as="geometry" />
        </mxCell>
        <mxCell id="-m6qlQXstEaMMELnGQX9-80" value="get all&lt;br&gt;order received" style="rounded=0;whiteSpace=wrap;html=1;" parent="1" vertex="1">
          <mxGeometry x="-450" y="720" width="120" height="60" as="geometry" />
        </mxCell>
        <mxCell id="-m6qlQXstEaMMELnGQX9-81" value="get order by barcode" style="rounded=0;whiteSpace=wrap;html=1;" parent="1" vertex="1">
          <mxGeometry x="-450" y="790" width="120" height="60" as="geometry" />
        </mxCell>
        <mxCell id="-m6qlQXstEaMMELnGQX9-82" value="get rate&lt;br&gt;by manifest" style="rounded=0;whiteSpace=wrap;html=1;" parent="1" vertex="1">
          <mxGeometry x="-450" y="860" width="120" height="60" as="geometry" />
        </mxCell>
        <mxCell id="-m6qlQXstEaMMELnGQX9-83" value="get status" style="rounded=0;whiteSpace=wrap;html=1;" parent="1" vertex="1">
          <mxGeometry x="-450" y="930" width="120" height="60" as="geometry" />
        </mxCell>
        <mxCell id="-m6qlQXstEaMMELnGQX9-84" value="get all&lt;br&gt;order reverse" style="rounded=0;whiteSpace=wrap;html=1;" parent="1" vertex="1">
          <mxGeometry x="-320" y="720" width="120" height="60" as="geometry" />
        </mxCell>
        <mxCell id="-m6qlQXstEaMMELnGQX9-85" value="get order by barcodes" style="rounded=0;whiteSpace=wrap;html=1;" parent="1" vertex="1">
          <mxGeometry x="-320" y="790" width="120" height="60" as="geometry" />
        </mxCell>
        <mxCell id="-m6qlQXstEaMMELnGQX9-86" value="get rate&lt;br&gt;price by weight" style="rounded=0;whiteSpace=wrap;html=1;" parent="1" vertex="1">
          <mxGeometry x="-320" y="860" width="120" height="60" as="geometry" />
        </mxCell>
        <mxCell id="-m6qlQXstEaMMELnGQX9-87" value="report json" style="rounded=0;whiteSpace=wrap;html=1;" parent="1" vertex="1">
          <mxGeometry x="-320" y="930" width="120" height="60" as="geometry" />
        </mxCell>
        <mxCell id="-m6qlQXstEaMMELnGQX9-89" style="edgeStyle=orthogonalEdgeStyle;rounded=0;orthogonalLoop=1;jettySize=auto;html=1;exitX=0.5;exitY=1;exitDx=0;exitDy=0;entryX=0;entryY=0.5;entryDx=0;entryDy=0;" parent="1" source="-m6qlQXstEaMMELnGQX9-91" target="-m6qlQXstEaMMELnGQX9-92" edge="1">
          <mxGeometry relative="1" as="geometry" />
        </mxCell>
        <mxCell id="-m6qlQXstEaMMELnGQX9-90" style="edgeStyle=orthogonalEdgeStyle;rounded=0;orthogonalLoop=1;jettySize=auto;html=1;exitX=0.5;exitY=1;exitDx=0;exitDy=0;entryX=0;entryY=0.5;entryDx=0;entryDy=0;" parent="1" source="-m6qlQXstEaMMELnGQX9-91" target="-m6qlQXstEaMMELnGQX9-93" edge="1">
          <mxGeometry relative="1" as="geometry" />
        </mxCell>
        <mxCell id="-m6qlQXstEaMMELnGQX9-100" style="edgeStyle=orthogonalEdgeStyle;rounded=0;orthogonalLoop=1;jettySize=auto;html=1;exitX=0.5;exitY=1;exitDx=0;exitDy=0;entryX=0;entryY=0.5;entryDx=0;entryDy=0;" parent="1" source="-m6qlQXstEaMMELnGQX9-91" target="-m6qlQXstEaMMELnGQX9-99" edge="1">
          <mxGeometry relative="1" as="geometry" />
        </mxCell>
        <mxCell id="-m6qlQXstEaMMELnGQX9-91" value="Type info" style="rounded=0;whiteSpace=wrap;html=1;" parent="1" vertex="1">
          <mxGeometry x="1180" y="242" width="120" height="60" as="geometry" />
        </mxCell>
        <mxCell id="-m6qlQXstEaMMELnGQX9-92" value="Trouble" style="rounded=0;whiteSpace=wrap;html=1;" parent="1" vertex="1">
          <mxGeometry x="1270" y="322" width="120" height="60" as="geometry" />
        </mxCell>
        <mxCell id="-m6qlQXstEaMMELnGQX9-93" value="retention" style="rounded=0;whiteSpace=wrap;html=1;" parent="1" vertex="1">
          <mxGeometry x="1270" y="392" width="120" height="60" as="geometry" />
        </mxCell>
        <mxCell id="-m6qlQXstEaMMELnGQX9-94" style="edgeStyle=orthogonalEdgeStyle;rounded=0;orthogonalLoop=1;jettySize=auto;html=1;exitX=0.5;exitY=1;exitDx=0;exitDy=0;entryX=0;entryY=0.5;entryDx=0;entryDy=0;" parent="1" source="-m6qlQXstEaMMELnGQX9-96" edge="1">
          <mxGeometry relative="1" as="geometry">
            <mxPoint x="1020" y="422" as="targetPoint" />
            <Array as="points">
              <mxPoint x="990" y="422" />
            </Array>
          </mxGeometry>
        </mxCell>
        <mxCell id="-m6qlQXstEaMMELnGQX9-95" style="edgeStyle=orthogonalEdgeStyle;rounded=0;orthogonalLoop=1;jettySize=auto;html=1;exitX=0.5;exitY=1;exitDx=0;exitDy=0;entryX=0;entryY=0.5;entryDx=0;entryDy=0;" parent="1" source="-m6qlQXstEaMMELnGQX9-96" target="-m6qlQXstEaMMELnGQX9-98" edge="1">
          <mxGeometry relative="1" as="geometry" />
        </mxCell>
        <mxCell id="-m6qlQXstEaMMELnGQX9-96" value="Exptess track" style="rounded=0;whiteSpace=wrap;html=1;" parent="1" vertex="1">
          <mxGeometry x="930" y="312" width="120" height="60" as="geometry" />
        </mxCell>
        <mxCell id="-m6qlQXstEaMMELnGQX9-98" value="tracking push" style="rounded=0;whiteSpace=wrap;html=1;" parent="1" vertex="1">
          <mxGeometry x="1020" y="462" width="120" height="60" as="geometry" />
        </mxCell>
        <mxCell id="-m6qlQXstEaMMELnGQX9-99" value="Address data" style="rounded=0;whiteSpace=wrap;html=1;" parent="1" vertex="1">
          <mxGeometry x="1270" y="462" width="120" height="60" as="geometry" />
        </mxCell>
        <mxCell id="-m6qlQXstEaMMELnGQX9-101" value="tracking query" style="rounded=0;whiteSpace=wrap;html=1;align=center;" parent="1" vertex="1">
          <mxGeometry x="1020" y="390" width="120" height="60" as="geometry" />
        </mxCell>
        <mxCell id="-m6qlQXstEaMMELnGQX9-104" value="PDF" style="rounded=0;whiteSpace=wrap;html=1;" parent="1" vertex="1">
          <mxGeometry x="940" y="560" width="120" height="60" as="geometry" />
        </mxCell>
        <mxCell id="-m6qlQXstEaMMELnGQX9-108" value="mapping&lt;br&gt;ต้องให้ลูกค้าเอา xx id ไปผูกกับทาง J&amp;amp;T เพื่อลงทะเบียนละ ต่อ api" style="rounded=0;whiteSpace=wrap;html=1;align=left;" parent="1" vertex="1">
          <mxGeometry x="1190" y="600" width="120" height="60" as="geometry" />
        </mxCell>
        <mxCell id="5tuys6Ea339apIoCnLFE-1" value="&lt;span style=&quot;color: rgb(51 , 51 , 51) ; font-family: &amp;#34;helvetica neue&amp;#34; , &amp;#34;helvetica&amp;#34; , &amp;#34;arial&amp;#34; , sans-serif ; font-size: 14px ; background-color: rgb(255 , 255 , 255)&quot;&gt;Shop ID&lt;/span&gt;" style="rounded=0;whiteSpace=wrap;html=1;align=left;" vertex="1" parent="1">
          <mxGeometry x="1270" y="720" width="120" height="60" as="geometry" />
        </mxCell>
        <mxCell id="5tuys6Ea339apIoCnLFE-40" value="" style="edgeStyle=orthogonalEdgeStyle;rounded=0;orthogonalLoop=1;jettySize=auto;html=1;" edge="1" parent="1" source="5tuys6Ea339apIoCnLFE-44" target="5tuys6Ea339apIoCnLFE-45">
          <mxGeometry relative="1" as="geometry">
            <Array as="points">
              <mxPoint x="3540" y="400" />
            </Array>
          </mxGeometry>
        </mxCell>
        <mxCell id="5tuys6Ea339apIoCnLFE-41" style="edgeStyle=orthogonalEdgeStyle;rounded=0;orthogonalLoop=1;jettySize=auto;html=1;entryX=0;entryY=0.5;entryDx=0;entryDy=0;" edge="1" parent="1" source="5tuys6Ea339apIoCnLFE-44" target="5tuys6Ea339apIoCnLFE-46">
          <mxGeometry relative="1" as="geometry" />
        </mxCell>
        <mxCell id="5tuys6Ea339apIoCnLFE-42" style="edgeStyle=orthogonalEdgeStyle;rounded=0;orthogonalLoop=1;jettySize=auto;html=1;entryX=0;entryY=0.5;entryDx=0;entryDy=0;" edge="1" parent="1" source="5tuys6Ea339apIoCnLFE-44" target="5tuys6Ea339apIoCnLFE-51">
          <mxGeometry relative="1" as="geometry" />
        </mxCell>
        <mxCell id="5tuys6Ea339apIoCnLFE-43" style="edgeStyle=orthogonalEdgeStyle;rounded=0;orthogonalLoop=1;jettySize=auto;html=1;exitX=0;exitY=0.5;exitDx=0;exitDy=0;" edge="1" parent="1" source="5tuys6Ea339apIoCnLFE-44">
          <mxGeometry relative="1" as="geometry">
            <mxPoint x="3350" y="300.2758620689656" as="targetPoint" />
          </mxGeometry>
        </mxCell>
        <mxCell id="5tuys6Ea339apIoCnLFE-44" value="Merchant" style="rounded=0;whiteSpace=wrap;html=1;" vertex="1" parent="1">
          <mxGeometry x="3480" y="270" width="120" height="60" as="geometry" />
        </mxCell>
        <mxCell id="5tuys6Ea339apIoCnLFE-45" value="create" style="rounded=0;whiteSpace=wrap;html=1;" vertex="1" parent="1">
          <mxGeometry x="3590" y="370" width="120" height="60" as="geometry" />
        </mxCell>
        <mxCell id="5tuys6Ea339apIoCnLFE-46" value="get" style="rounded=0;whiteSpace=wrap;html=1;" vertex="1" parent="1">
          <mxGeometry x="3590" y="440" width="120" height="60" as="geometry" />
        </mxCell>
        <mxCell id="5tuys6Ea339apIoCnLFE-47" value="" style="edgeStyle=orthogonalEdgeStyle;rounded=0;orthogonalLoop=1;jettySize=auto;html=1;" edge="1" parent="1" source="5tuys6Ea339apIoCnLFE-49" target="5tuys6Ea339apIoCnLFE-50">
          <mxGeometry relative="1" as="geometry">
            <Array as="points">
              <mxPoint x="3765" y="402" />
            </Array>
          </mxGeometry>
        </mxCell>
        <mxCell id="5tuys6Ea339apIoCnLFE-48" style="edgeStyle=orthogonalEdgeStyle;rounded=0;orthogonalLoop=1;jettySize=auto;html=1;exitX=0;exitY=0.5;exitDx=0;exitDy=0;entryX=1;entryY=0.5;entryDx=0;entryDy=0;" edge="1" parent="1" source="5tuys6Ea339apIoCnLFE-49" target="5tuys6Ea339apIoCnLFE-55">
          <mxGeometry relative="1" as="geometry">
            <Array as="points">
              <mxPoint x="3640" y="302" />
              <mxPoint x="3640" y="340" />
              <mxPoint x="3420" y="340" />
              <mxPoint x="3420" y="300" />
            </Array>
          </mxGeometry>
        </mxCell>
        <mxCell id="5tuys6Ea339apIoCnLFE-49" value="Store" style="rounded=0;whiteSpace=wrap;html=1;" vertex="1" parent="1">
          <mxGeometry x="3705" y="272" width="120" height="60" as="geometry" />
        </mxCell>
        <mxCell id="5tuys6Ea339apIoCnLFE-50" value="create" style="rounded=0;whiteSpace=wrap;html=1;" vertex="1" parent="1">
          <mxGeometry x="3800" y="370" width="120" height="60" as="geometry" />
        </mxCell>
        <mxCell id="5tuys6Ea339apIoCnLFE-51" value="update" style="rounded=0;whiteSpace=wrap;html=1;" vertex="1" parent="1">
          <mxGeometry x="3590" y="510" width="120" height="60" as="geometry" />
        </mxCell>
        <mxCell id="5tuys6Ea339apIoCnLFE-52" value="" style="edgeStyle=orthogonalEdgeStyle;rounded=0;orthogonalLoop=1;jettySize=auto;html=1;" edge="1" parent="1" source="5tuys6Ea339apIoCnLFE-55" target="5tuys6Ea339apIoCnLFE-56">
          <mxGeometry relative="1" as="geometry">
            <Array as="points">
              <mxPoint x="3290" y="400" />
            </Array>
          </mxGeometry>
        </mxCell>
        <mxCell id="5tuys6Ea339apIoCnLFE-53" style="edgeStyle=orthogonalEdgeStyle;rounded=0;orthogonalLoop=1;jettySize=auto;html=1;entryX=0;entryY=0.5;entryDx=0;entryDy=0;" edge="1" parent="1" source="5tuys6Ea339apIoCnLFE-55" target="5tuys6Ea339apIoCnLFE-57">
          <mxGeometry relative="1" as="geometry" />
        </mxCell>
        <mxCell id="5tuys6Ea339apIoCnLFE-54" style="edgeStyle=orthogonalEdgeStyle;rounded=0;orthogonalLoop=1;jettySize=auto;html=1;entryX=0;entryY=0.5;entryDx=0;entryDy=0;" edge="1" parent="1" source="5tuys6Ea339apIoCnLFE-55" target="5tuys6Ea339apIoCnLFE-58">
          <mxGeometry relative="1" as="geometry" />
        </mxCell>
        <mxCell id="5tuys6Ea339apIoCnLFE-55" value="Order" style="rounded=0;whiteSpace=wrap;html=1;" vertex="1" parent="1">
          <mxGeometry x="3230" y="270" width="120" height="60" as="geometry" />
        </mxCell>
        <mxCell id="5tuys6Ea339apIoCnLFE-56" value="create" style="rounded=0;whiteSpace=wrap;html=1;" vertex="1" parent="1">
          <mxGeometry x="3340" y="370" width="120" height="60" as="geometry" />
        </mxCell>
        <mxCell id="5tuys6Ea339apIoCnLFE-57" value="cancle" style="rounded=0;whiteSpace=wrap;html=1;" vertex="1" parent="1">
          <mxGeometry x="3340" y="440" width="120" height="60" as="geometry" />
        </mxCell>
        <mxCell id="5tuys6Ea339apIoCnLFE-58" value="Freight inquiry" style="rounded=0;whiteSpace=wrap;html=1;" vertex="1" parent="1">
          <mxGeometry x="3340" y="510" width="120" height="60" as="geometry" />
        </mxCell>
        <mxCell id="5tuys6Ea339apIoCnLFE-59" value="&lt;ul&gt;&lt;li&gt;1 pickup&lt;/li&gt;&lt;li&gt;6 drop off&lt;/li&gt;&lt;/ul&gt;" style="rounded=0;whiteSpace=wrap;html=1;align=left;" vertex="1" parent="1">
          <mxGeometry x="3340" y="580" width="130" height="50" as="geometry" />
        </mxCell>
        <mxCell id="5tuys6Ea339apIoCnLFE-60" value="required field&lt;br&gt;&lt;ul&gt;&lt;li&gt;สาขาที่ dropoff&lt;/li&gt;&lt;li&gt;email&lt;/li&gt;&lt;/ul&gt;" style="rounded=0;whiteSpace=wrap;html=1;align=left;" vertex="1" parent="1">
          <mxGeometry x="3590" y="580" width="210" height="90" as="geometry" />
        </mxCell>
        <mxCell id="5tuys6Ea339apIoCnLFE-61" value="ออกแบบ&lt;br&gt;ระบบกล่อง&lt;br&gt;ระบบส่วนลดขนส่ง" style="rounded=0;whiteSpace=wrap;html=1;" vertex="1" parent="1">
          <mxGeometry x="2640" y="200" width="120" height="60" as="geometry" />
        </mxCell>
        <mxCell id="5tuys6Ea339apIoCnLFE-62" value="Flash" style="rounded=0;whiteSpace=wrap;html=1;" vertex="1" parent="1">
          <mxGeometry x="3330" y="140" width="120" height="60" as="geometry" />
        </mxCell>
        <mxCell id="5tuys6Ea339apIoCnLFE-63" style="edgeStyle=orthogonalEdgeStyle;rounded=0;orthogonalLoop=1;jettySize=auto;html=1;exitX=0.5;exitY=1;exitDx=0;exitDy=0;entryX=0;entryY=0.5;entryDx=0;entryDy=0;" edge="1" parent="1" source="5tuys6Ea339apIoCnLFE-66" target="5tuys6Ea339apIoCnLFE-67">
          <mxGeometry relative="1" as="geometry" />
        </mxCell>
        <mxCell id="5tuys6Ea339apIoCnLFE-64" style="edgeStyle=orthogonalEdgeStyle;rounded=0;orthogonalLoop=1;jettySize=auto;html=1;exitX=0.5;exitY=1;exitDx=0;exitDy=0;entryX=0;entryY=0.5;entryDx=0;entryDy=0;" edge="1" parent="1" source="5tuys6Ea339apIoCnLFE-66" target="5tuys6Ea339apIoCnLFE-68">
          <mxGeometry relative="1" as="geometry" />
        </mxCell>
        <mxCell id="5tuys6Ea339apIoCnLFE-65" style="edgeStyle=orthogonalEdgeStyle;rounded=0;orthogonalLoop=1;jettySize=auto;html=1;exitX=0.5;exitY=1;exitDx=0;exitDy=0;entryX=0;entryY=0.5;entryDx=0;entryDy=0;" edge="1" parent="1" source="5tuys6Ea339apIoCnLFE-66" target="5tuys6Ea339apIoCnLFE-73">
          <mxGeometry relative="1" as="geometry" />
        </mxCell>
        <mxCell id="5tuys6Ea339apIoCnLFE-66" value="Type info" style="rounded=0;whiteSpace=wrap;html=1;" vertex="1" parent="1">
          <mxGeometry x="2980" y="272" width="120" height="60" as="geometry" />
        </mxCell>
        <mxCell id="5tuys6Ea339apIoCnLFE-67" value="Trouble" style="rounded=0;whiteSpace=wrap;html=1;" vertex="1" parent="1">
          <mxGeometry x="3070" y="352" width="120" height="60" as="geometry" />
        </mxCell>
        <mxCell id="5tuys6Ea339apIoCnLFE-68" value="retention" style="rounded=0;whiteSpace=wrap;html=1;" vertex="1" parent="1">
          <mxGeometry x="3070" y="422" width="120" height="60" as="geometry" />
        </mxCell>
        <mxCell id="5tuys6Ea339apIoCnLFE-69" style="edgeStyle=orthogonalEdgeStyle;rounded=0;orthogonalLoop=1;jettySize=auto;html=1;exitX=0.5;exitY=1;exitDx=0;exitDy=0;entryX=0;entryY=0.5;entryDx=0;entryDy=0;" edge="1" parent="1" source="5tuys6Ea339apIoCnLFE-71">
          <mxGeometry relative="1" as="geometry">
            <mxPoint x="2820" y="452" as="targetPoint" />
            <Array as="points">
              <mxPoint x="2790" y="452" />
            </Array>
          </mxGeometry>
        </mxCell>
        <mxCell id="5tuys6Ea339apIoCnLFE-70" style="edgeStyle=orthogonalEdgeStyle;rounded=0;orthogonalLoop=1;jettySize=auto;html=1;exitX=0.5;exitY=1;exitDx=0;exitDy=0;entryX=0;entryY=0.5;entryDx=0;entryDy=0;" edge="1" parent="1" source="5tuys6Ea339apIoCnLFE-71" target="5tuys6Ea339apIoCnLFE-72">
          <mxGeometry relative="1" as="geometry" />
        </mxCell>
        <mxCell id="5tuys6Ea339apIoCnLFE-71" value="Exptess track" style="rounded=0;whiteSpace=wrap;html=1;" vertex="1" parent="1">
          <mxGeometry x="2730" y="342" width="120" height="60" as="geometry" />
        </mxCell>
        <mxCell id="5tuys6Ea339apIoCnLFE-72" value="tracking push" style="rounded=0;whiteSpace=wrap;html=1;" vertex="1" parent="1">
          <mxGeometry x="2820" y="492" width="120" height="60" as="geometry" />
        </mxCell>
        <mxCell id="5tuys6Ea339apIoCnLFE-73" value="Address data" style="rounded=0;whiteSpace=wrap;html=1;" vertex="1" parent="1">
          <mxGeometry x="3070" y="492" width="120" height="60" as="geometry" />
        </mxCell>
        <mxCell id="5tuys6Ea339apIoCnLFE-74" value="tracking query" style="rounded=0;whiteSpace=wrap;html=1;align=center;" vertex="1" parent="1">
          <mxGeometry x="2820" y="420" width="120" height="60" as="geometry" />
        </mxCell>
        <mxCell id="5tuys6Ea339apIoCnLFE-75" value="PDF" style="rounded=0;whiteSpace=wrap;html=1;" vertex="1" parent="1">
          <mxGeometry x="2740" y="590" width="120" height="60" as="geometry" />
        </mxCell>
        <mxCell id="5tuys6Ea339apIoCnLFE-76" value="mapping&lt;br&gt;ต้องให้ลูกค้าเอา xx id ไปผูกกับทาง J&amp;amp;T เพื่อลงทะเบียนละ ต่อ api" style="rounded=0;whiteSpace=wrap;html=1;align=left;" vertex="1" parent="1">
          <mxGeometry x="2990" y="630" width="120" height="60" as="geometry" />
        </mxCell>
        <mxCell id="5tuys6Ea339apIoCnLFE-77" value="&lt;span style=&quot;color: rgb(51 , 51 , 51) ; font-family: &amp;#34;helvetica neue&amp;#34; , &amp;#34;helvetica&amp;#34; , &amp;#34;arial&amp;#34; , sans-serif ; font-size: 14px ; background-color: rgb(255 , 255 , 255)&quot;&gt;Shop ID&lt;/span&gt;" style="rounded=0;whiteSpace=wrap;html=1;align=left;" vertex="1" parent="1">
          <mxGeometry x="3070" y="750" width="120" height="60" as="geometry" />
        </mxCell>
      </root>
    </mxGraphModel>
  </diagram>
</mxfile>
